<svg version="1.1" viewBox="0.0 0.0 960.0 720.0" fill="none" stroke="none" stroke-linecap="square" stroke-miterlimit="10" xmlns:xlink="http://www.w3.org/1999/xlink" xmlns="http://www.w3.org/2000/svg"><clipPath id="p.0"><path d="m0 0l960.0 0l0 720.0l-960.0 0l0 -720.0z" clip-rule="nonzero"/></clipPath><g clip-path="url(#p.0)"><path fill="#000000" fill-opacity="0.0" d="m0 0l960.0 0l0 720.0l-960.0 0z" fill-rule="evenodd"/><path fill="#ff9900" d="m517.1076 197.31758l83.27557 0l0 307.81104l-83.27557 0z" fill-rule="evenodd"/><path stroke="#000000" stroke-width="1.0" stroke-linejoin="round" stroke-linecap="butt" d="m517.1076 197.31758l83.27557 0l0 307.81104l-83.27557 0z" fill-rule="evenodd"/><path fill="#ff9900" d="m198.18373 200.83202l83.27559 0l0 307.81104l-83.27559 0z" fill-rule="evenodd"/><path stroke="#000000" stroke-width="1.0" stroke-linejoin="round" stroke-linecap="butt" d="m198.18373 200.83202l83.27559 0l0 307.81104l-83.27559 0z" fill-rule="evenodd"/><path fill="#000000" fill-opacity="0.0" d="m218.81364 445.937l0 -200.34647l42.015762 0l0 200.34647z" fill-rule="evenodd"/><path stroke="#ffffff" stroke-width="1.0" stroke-linejoin="round" stroke-linecap="butt" d="m218.81364 445.937l0 -200.34647l42.015762 0l0 200.34647z" fill-rule="evenodd"/><path fill="#000000" d="m245.73364 432.57764l-11.09375 0l0 3.953125l-2.265625 0l0 -10.609375l2.265625 0l0 3.953125l11.09375 0l0 2.703125zm0 -9.803528l0 2.5625l-9.671875 0l0 -2.375l1.375 0q-0.984375 -0.609375 -1.28125 -1.09375q-0.3125 -0.484375 -0.3125 -1.109375q0 -0.875 0.484375 -1.6875l2.234375 0.796875q-0.421875 0.640625 -0.421875 1.203125q0 0.53125 0.296875 0.90625q0.296875 0.375 1.078125 0.59375q0.765625 0.203125 3.234375 0.203125l2.984375 0zm-6.71875 -6.7134094l-0.421875 2.328125q-1.40625 -0.40625 -2.078125 -1.359375q-0.671875 -0.953125 -0.671875 -2.84375q0 -1.703125 0.40625 -2.546875q0.40625 -0.84375 1.03125 -1.171875q0.625 -0.34375 2.28125 -0.34375l3.0 0.015625q1.265625 0 1.875 -0.109375q0.609375 -0.125 1.296875 -0.46875l0 2.53125q-0.25 0.109375 -0.75 0.25q-0.234375 0.0625 -0.3125 0.09375q0.640625 0.65625 0.96875 1.40625q0.3125 0.734375 0.3125 1.59375q0 1.484375 -0.8125 2.34375q-0.8125 0.859375 -2.046875 0.859375q-0.828125 0 -1.46875 -0.390625q-0.640625 -0.390625 -0.96875 -1.09375q-0.34375 -0.703125 -0.609375 -2.03125q-0.328125 -1.796875 -0.625 -2.484375l-0.25 0q-0.75 0 -1.0625 0.359375q-0.3125 0.359375 -0.3125 1.375q0 0.6875 0.28125 1.078125q0.265625 0.375 0.9375 0.609375zm2.078125 -3.421875q0.15625 0.484375 0.390625 1.5625q0.21875 1.0625 0.4375 1.390625q0.359375 0.5 0.90625 0.5q0.53125 0 0.9375 -0.40625q0.390625 -0.40625 0.390625 -1.015625q0 -0.703125 -0.46875 -1.328125q-0.34375 -0.46875 -0.84375 -0.609375q-0.328125 -0.09375 -1.25 -0.09375l-0.5 0zm4.640625 -13.844452l0 2.5625l-4.9375 0q-1.5625 0 -2.015625 0.171875q-0.46875 0.15625 -0.71875 0.53125q-0.265625 0.359375 -0.265625 0.875q0 0.671875 0.375 1.203125q0.359375 0.53125 0.96875 0.734375q0.59375 0.1875 2.21875 0.1875l4.375 0l0 2.546875l-9.671875 0l0 -2.375l1.421875 0q-1.640625 -1.265625 -1.640625 -3.1875q0 -0.84375 0.3125 -1.546875q0.296875 -0.703125 0.78125 -1.0625q0.46875 -0.359375 1.078125 -0.5q0.59375 -0.140625 1.703125 -0.140625l6.015625 0zm-2.765625 -1.6928711l-0.390625 -2.5625q0.75 -0.171875 1.140625 -0.671875q0.390625 -0.5 0.390625 -1.40625q0 -0.984375 -0.375 -1.484375q-0.25 -0.34375 -0.671875 -0.34375q-0.296875 0 -0.484375 0.1875q-0.1875 0.1875 -0.34375 0.859375q-0.6875 3.09375 -1.25 3.921875q-0.78125 1.140625 -2.171875 1.140625q-1.265625 0 -2.109375 -0.984375q-0.859375 -1.0 -0.859375 -3.078125q0 -1.984375 0.65625 -2.953125q0.640625 -0.96875 1.90625 -1.328125l0.4375 2.40625q-0.5625 0.15625 -0.859375 0.59375q-0.296875 0.421875 -0.296875 1.234375q0 1.0 0.28125 1.4375q0.203125 0.296875 0.515625 0.296875q0.265625 0 0.46875 -0.25q0.25 -0.34375 0.71875 -2.390625q0.453125 -2.046875 1.140625 -2.859375q0.671875 -0.796875 1.890625 -0.796875q1.34375 0 2.296875 1.109375q0.953125 1.109375 0.953125 3.28125q0 1.984375 -0.796875 3.140625q-0.8125 1.140625 -2.1875 1.5zm-6.90625 -10.156952l0 -1.421875l-0.734375 0q-1.21875 0 -1.8125 -0.25q-0.609375 -0.265625 -0.984375 -0.953125q-0.375 -0.703125 -0.375 -1.78125q0 -1.09375 0.328125 -2.140625l1.78125 0.359375q-0.140625 0.609375 -0.140625 1.171875q0 0.546875 0.265625 0.796875q0.25 0.234375 0.984375 0.234375l0.6875 0l0 -1.90625l2.015625 0l0 1.90625l7.65625 0l0 2.5625l-7.65625 0l0 1.421875l-2.015625 0zm6.59375 -12.931427l0.421875 -2.546875q1.40625 0.484375 2.140625 1.546875q0.734375 1.0625 0.734375 2.65625q0 2.515625 -1.65625 3.734375q-1.3125 0.953125 -3.328125 0.953125q-2.40625 0 -3.765625 -1.25q-1.359375 -1.265625 -1.359375 -3.1875q0 -2.15625 1.421875 -3.40625q1.421875 -1.25 4.375 -1.1875l0 6.40625q1.140625 -0.03125 1.78125 -0.609375q0.625 -0.59375 0.625 -1.484375q0 -0.59375 -0.328125 -1.0q-0.328125 -0.421875 -1.0625 -0.625zm-2.59375 -0.15625q-1.109375 0.03125 -1.6875 0.578125q-0.578125 0.546875 -0.578125 1.328125q0 0.84375 0.609375 1.390625q0.609375 0.546875 1.65625 0.53125l0 -3.828125zm5.671875 -7.0788574l0 2.5625l-9.671875 0l0 -2.375l1.375 0q-0.984375 -0.609375 -1.28125 -1.09375q-0.3125 -0.484375 -0.3125 -1.109375q0 -0.875 0.484375 -1.6875l2.234375 0.796875q-0.421875 0.640625 -0.421875 1.203125q0 0.53125 0.296875 0.90625q0.296875 0.375 1.078125 0.59375q0.765625 0.203125 3.234375 0.203125l2.984375 0zm0 -9.974823l-13.359375 0l0 -4.03125l9.109375 -2.421875l-9.109375 -2.390625l0 -4.046875l13.359375 0l0 2.5l-10.515625 0l10.515625 2.65625l0 2.59375l-10.515625 2.640625l10.515625 0l0 2.5zm-4.96875 -14.962677q-1.28125 0 -2.46875 -0.625q-1.203125 -0.625 -1.828125 -1.78125q-0.625 -1.15625 -0.625 -2.578125q0 -2.1875 1.421875 -3.59375q1.421875 -1.40625 3.609375 -1.40625q2.1875 0 3.640625 1.421875q1.4375 1.421875 1.4375 3.5625q0 1.328125 -0.59375 2.546875q-0.609375 1.203125 -1.765625 1.828125q-1.171875 0.625 -2.828125 0.625zm0.125 -2.625q1.453125 0 2.21875 -0.671875q0.75 -0.6875 0.75 -1.6875q0 -1.0 -0.75 -1.671875q-0.765625 -0.6875 -2.234375 -0.6875q-1.421875 0 -2.1875 0.6875q-0.765625 0.671875 -0.765625 1.671875q0 1.0 0.765625 1.6875q0.765625 0.671875 2.203125 0.671875zm4.84375 -18.16159l0 2.5625l-4.9375 0q-1.5625 0 -2.015625 0.171875q-0.46875 0.15625 -0.71875 0.53125q-0.265625 0.359375 -0.265625 0.875q0 0.671875 0.375 1.203125q0.359375 0.53125 0.96875 0.734375q0.59375 0.1875 2.21875 0.1875l4.375 0l0 2.546875l-9.671875 0l0 -2.375l1.421875 0q-1.640625 -1.265625 -1.640625 -3.1875q0 -0.84375 0.3125 -1.546875q0.296875 -0.703125 0.78125 -1.0625q0.46875 -0.359375 1.078125 -0.5q0.59375 -0.140625 1.703125 -0.140625l6.015625 0zm-3.078125 -8.192871l0.421875 -2.546875q1.40625 0.484375 2.140625 1.546875q0.734375 1.0625 0.734375 2.65625q0 2.515625 -1.65625 3.734375q-1.3125 0.953125 -3.328125 0.953125q-2.40625 0 -3.765625 -1.25q-1.359375 -1.265625 -1.359375 -3.1875q0 -2.15625 1.421875 -3.40625q1.421875 -1.25 4.375 -1.1875l0 6.40625q1.140625 -0.03125 1.78125 -0.609375q0.625 -0.59375 0.625 -1.484375q0 -0.59375 -0.328125 -1.0q-0.328125 -0.421875 -1.0625 -0.625zm-2.59375 -0.15625q-1.109375 0.03125 -1.6875 0.578125q-0.578125 0.546875 -0.578125 1.328125q0 0.84375 0.609375 1.390625q0.609375 0.546875 1.65625 0.53125l0 -3.828125zm-4.0 -3.406952l0 -2.71875l6.859375 -2.328125l-6.859375 -2.25l0 -2.65625l9.3125 3.421875l1.6875 0.609375q0.84375 0.328125 1.28125 0.640625q0.453125 0.3125 0.71875 0.703125q0.28125 0.390625 0.4375 0.96875q0.15625 0.578125 0.15625 1.3125q0 0.734375 -0.15625 1.453125l-2.0 0.21875q0.125 -0.59375 0.125 -1.078125q0 -0.890625 -0.53125 -1.3125q-0.515625 -0.4375 -1.328125 -0.671875l-9.703125 3.6875z" fill-rule="nonzero"/><path fill="#ff9900" d="m305.89764 197.31758l83.27557 0l0 307.81104l-83.27557 0z" fill-rule="evenodd"/><path stroke="#000000" stroke-width="1.0" stroke-linejoin="round" stroke-linecap="butt" d="m305.89764 197.31758l83.27557 0l0 307.81104l-83.27557 0z" fill-rule="evenodd"/><path fill="#000000" fill-opacity="0.0" d="m326.52756 441.69815l0 -173.92123l42.015747 0l0 173.92123z" fill-rule="evenodd"/><path stroke="#ffffff" stroke-width="1.0" stroke-linejoin="round" stroke-linecap="butt" d="m326.52756 441.69815l0 -173.92123l42.015747 0l0 173.92123z" fill-rule="evenodd"/><path fill="#000000" d="m353.44757 429.44815l-13.359375 3.1875l0 -2.765625l9.171875 -2.015625l-9.171875 -2.4375l0 -3.203125l9.328125 -2.34375l-9.328125 -2.046875l0 -2.71875l13.359375 3.25l0 2.859375l-9.984375 2.65625l9.984375 2.65625l0 2.921875zm-10.984375 -15.53833l-2.375 0l0 -2.5625l2.375 0l0 2.5625zm10.984375 0l-9.671875 0l0 -2.5625l9.671875 0l0 2.5625zm-9.671875 -9.620819l2.03125 0l0 1.75l3.90625 0q1.1875 0 1.390625 -0.046875q0.1875 -0.046875 0.3125 -0.21875q0.125 -0.1875 0.125 -0.4375q0 -0.359375 -0.25 -1.03125l2.0 -0.21875q0.375 0.890625 0.375 2.015625q0 0.703125 -0.234375 1.265625q-0.234375 0.546875 -0.59375 0.8125q-0.375 0.25 -1.0 0.34375q-0.453125 0.09375 -1.8125 0.09375l-4.21875 0l0 1.171875l-2.03125 0l0 -1.171875l-1.921875 0l-1.5 -2.578125l3.421875 0l0 -1.75zm-3.6875 -4.322052l4.921875 0q-1.453125 -1.234375 -1.453125 -2.953125q0 -0.890625 0.328125 -1.59375q0.328125 -0.71875 0.84375 -1.078125q0.5 -0.359375 1.125 -0.484375q0.609375 -0.140625 1.921875 -0.140625l5.671875 0l0 2.5625l-5.109375 0q-1.515625 0 -1.921875 0.15625q-0.421875 0.140625 -0.65625 0.515625q-0.25 0.359375 -0.25 0.90625q0 0.640625 0.3125 1.140625q0.3125 0.5 0.9375 0.734375q0.625 0.234375 1.84375 0.234375l4.84375 0l0 2.5625l-13.359375 0l0 -2.5625zm13.359375 -17.72409l0 2.390625l-1.421875 0q0.828125 0.59375 1.234375 1.40625q0.40625 0.796875 0.40625 1.609375q0 1.671875 -1.34375 2.859375q-1.34375 1.1875 -3.75 1.1875q-2.453125 0 -3.734375 -1.15625q-1.28125 -1.15625 -1.28125 -2.921875q0 -1.625 1.34375 -2.8125l-4.8125 0l0 -2.5625l13.359375 0zm-5.046875 6.84375q1.546875 0 2.234375 -0.4375q1.015625 -0.609375 1.015625 -1.71875q0 -0.890625 -0.75 -1.5q-0.765625 -0.625 -2.25 -0.625q-1.671875 0 -2.40625 0.609375q-0.734375 0.59375 -0.734375 1.53125q0 0.90625 0.734375 1.53125q0.71875 0.609375 2.15625 0.609375zm5.046875 -11.817871l0 2.5625l-9.671875 0l0 -2.375l1.375 0q-0.984375 -0.609375 -1.28125 -1.09375q-0.3125 -0.484375 -0.3125 -1.109375q0 -0.875 0.484375 -1.6875l2.234375 0.796875q-0.421875 0.640625 -0.421875 1.203125q0 0.53125 0.296875 0.90625q0.296875 0.375 1.078125 0.59375q0.765625 0.203125 3.234375 0.203125l2.984375 0zm-6.71875 -6.713379l-0.421875 2.328125q-1.40625 -0.40625 -2.078125 -1.359375q-0.671875 -0.953125 -0.671875 -2.84375q0 -1.703125 0.40625 -2.546875q0.40625 -0.84375 1.03125 -1.171875q0.625 -0.34375 2.28125 -0.34375l3.0 0.015625q1.265625 0 1.875 -0.109375q0.609375 -0.125 1.296875 -0.46875l0 2.53125q-0.25 0.109375 -0.75 0.25q-0.234375 0.0625 -0.3125 0.09375q0.640625 0.65625 0.96875 1.40625q0.3125 0.734375 0.3125 1.59375q0 1.484375 -0.8125 2.34375q-0.8125 0.859375 -2.046875 0.859375q-0.828125 0 -1.46875 -0.390625q-0.640625 -0.390625 -0.96875 -1.09375q-0.34375 -0.703125 -0.609375 -2.03125q-0.328125 -1.796875 -0.625 -2.484375l-0.25 0q-0.75 0 -1.0625 0.359375q-0.3125 0.359375 -0.3125 1.375q0 0.6875 0.28125 1.078125q0.265625 0.375 0.9375 0.609375zm2.078125 -3.421875q0.15625 0.484375 0.390625 1.5625q0.21875 1.0625 0.4375 1.390625q0.359375 0.5 0.90625 0.5q0.53125 0 0.9375 -0.40625q0.390625 -0.40625 0.390625 -1.015625q0 -0.703125 -0.46875 -1.328125q-0.34375 -0.46875 -0.84375 -0.609375q-0.328125 -0.09375 -1.25 -0.09375l-0.5 0zm4.640625 -6.8444824l-9.671875 3.0625l0 -2.484375l6.34375 -1.8125l-6.34375 -1.671875l0 -2.46875l6.34375 -1.609375l-6.34375 -1.859375l0 -2.515625l9.671875 3.109375l0 2.453125l-6.21875 1.671875l6.21875 1.640625l0 2.484375zm0 -17.882233l-13.359375 0l0 -4.03125l9.109375 -2.421875l-9.109375 -2.390625l0 -4.046875l13.359375 0l0 2.5l-10.515625 0l10.515625 2.65625l0 2.59375l-10.515625 2.640625l10.515625 0l0 2.5zm-4.96875 -14.962677q-1.28125 0 -2.46875 -0.625q-1.203125 -0.625 -1.828125 -1.78125q-0.625 -1.15625 -0.625 -2.578125q0 -2.1875 1.421875 -3.59375q1.421875 -1.40625 3.609375 -1.40625q2.1875 0 3.640625 1.421875q1.4375 1.421875 1.4375 3.5625q0 1.328125 -0.59375 2.546875q-0.609375 1.203125 -1.765625 1.828125q-1.171875 0.625 -2.828125 0.625zm0.125 -2.625q1.453125 0 2.21875 -0.671875q0.75 -0.6875 0.75 -1.6875q0 -1.0 -0.75 -1.671875q-0.765625 -0.6875 -2.234375 -0.6875q-1.421875 0 -2.1875 0.6875q-0.765625 0.671875 -0.765625 1.671875q0 1.0 0.765625 1.6875q0.765625 0.671875 2.203125 0.671875zm4.84375 -18.16159l0 2.5625l-4.9375 0q-1.5625 0 -2.015625 0.171875q-0.46875 0.15625 -0.71875 0.53125q-0.265625 0.359375 -0.265625 0.875q0 0.671875 0.375 1.203125q0.359375 0.53125 0.96875 0.734375q0.59375 0.1875 2.21875 0.1875l4.375 0l0 2.546875l-9.671875 0l0 -2.375l1.421875 0q-1.640625 -1.265625 -1.640625 -3.1875q0 -0.84375 0.3125 -1.546875q0.296875 -0.703125 0.78125 -1.0625q0.46875 -0.359375 1.078125 -0.5q0.59375 -0.140625 1.703125 -0.140625l6.015625 0zm-3.078125 -8.192871l0.421875 -2.546875q1.40625 0.484375 2.140625 1.546875q0.734375 1.0625 0.734375 2.65625q0 2.515625 -1.65625 3.734375q-1.3125 0.953125 -3.328125 0.953125q-2.40625 0 -3.765625 -1.25q-1.359375 -1.265625 -1.359375 -3.1875q0 -2.15625 1.421875 -3.40625q1.421875 -1.25 4.375 -1.1875l0 6.40625q1.140625 -0.03125 1.78125 -0.609375q0.625 -0.59375 0.625 -1.484375q0 -0.59375 -0.328125 -1.0q-0.328125 -0.421875 -1.0625 -0.625zm-2.59375 -0.15625q-1.109375 0.03125 -1.6875 0.578125q-0.578125 0.546875 -0.578125 1.328125q0 0.84375 0.609375 1.390625q0.609375 0.546875 1.65625 0.53125l0 -3.828125zm-4.0 -3.406952l0 -2.71875l6.859375 -2.328125l-6.859375 -2.25l0 -2.65625l9.3125 3.421875l1.6875 0.609375q0.84375 0.328125 1.28125 0.640625q0.453125 0.3125 0.71875 0.703125q0.28125 0.390625 0.4375 0.96875q0.15625 0.578125 0.15625 1.3125q0 0.734375 -0.15625 1.453125l-2.0 0.21875q0.125 -0.59375 0.125 -1.078125q0 -0.890625 -0.53125 -1.3125q-0.515625 -0.4375 -1.328125 -0.671875l-9.703125 3.6875z" fill-rule="nonzero"/><path fill="#ff9900" d="m413.61154 197.31758l83.275604 0l0 307.81104l-83.275604 0z" fill-rule="evenodd"/><path stroke="#000000" stroke-width="1.0" stroke-linejoin="round" stroke-linecap="butt" d="m413.61154 197.31758l83.275604 0l0 307.81104l-83.275604 0z" fill-rule="evenodd"/><path fill="#000000" fill-opacity="0.0" d="m434.24146 434.31262l0 -171.81104l42.015778 0l0 171.81104z" fill-rule="evenodd"/><path stroke="#ffffff" stroke-width="1.0" stroke-linejoin="round" stroke-linecap="butt" d="m434.24146 434.31262l0 -171.81104l42.015778 0l0 171.81104z" fill-rule="evenodd"/><path fill="#000000" d="m461.16147 423.9845l-13.359375 0l0 -4.03125l9.109375 -2.421875l-9.109375 -2.390625l0 -4.046875l13.359375 0l0 2.5l-10.515625 0l10.515625 2.65625l0 2.59375l-10.515625 2.640625l10.515625 0l0 2.5zm-6.71875 -17.462677l-0.421875 2.328125q-1.40625 -0.40625 -2.078125 -1.359375q-0.671875 -0.953125 -0.671875 -2.84375q0 -1.703125 0.40625 -2.546875q0.40625 -0.84375 1.03125 -1.171875q0.625 -0.34375 2.28125 -0.34375l3.0 0.015625q1.265625 0 1.875 -0.109375q0.609375 -0.125 1.296875 -0.46875l0 2.53125q-0.25 0.109375 -0.75 0.25q-0.234375 0.0625 -0.3125 0.09375q0.640625 0.65625 0.96875 1.40625q0.3125 0.734375 0.3125 1.59375q0 1.484375 -0.8125 2.34375q-0.8125 0.859375 -2.046875 0.859375q-0.828125 0 -1.46875 -0.390625q-0.640625 -0.390625 -0.96875 -1.09375q-0.34375 -0.703125 -0.609375 -2.03125q-0.328125 -1.796875 -0.625 -2.484375l-0.25 0q-0.75 0 -1.0625 0.359375q-0.3125 0.359375 -0.3125 1.375q0 0.6875 0.28125 1.078125q0.265625 0.375 0.9375 0.609375zm2.078125 -3.421875q0.15625 0.484375 0.390625 1.5625q0.21875 1.0625 0.4375 1.390625q0.359375 0.5 0.90625 0.5q0.53125 0 0.9375 -0.40625q0.390625 -0.40625 0.390625 -1.015625q0 -0.703125 -0.46875 -1.328125q-0.34375 -0.46875 -0.84375 -0.609375q-0.328125 -0.09375 -1.25 -0.09375l-0.5 0zm4.640625 -4.9538574l-13.359375 0l0 -2.5625l7.09375 0l-3.40625 -3.0l0 -3.140625l3.53125 3.296875l6.140625 -3.53125l0 2.75l-4.34375 2.4375l1.25 1.1875l3.09375 0l0 2.5625zm-3.078125 -16.063202l0.421875 -2.546875q1.40625 0.484375 2.140625 1.546875q0.734375 1.0625 0.734375 2.65625q0 2.515625 -1.65625 3.734375q-1.3125 0.953125 -3.328125 0.953125q-2.40625 0 -3.765625 -1.25q-1.359375 -1.265625 -1.359375 -3.1875q0 -2.15625 1.421875 -3.40625q1.421875 -1.25 4.375 -1.1875l0 6.40625q1.140625 -0.03125 1.78125 -0.609375q0.625 -0.59375 0.625 -1.484375q0 -0.59375 -0.328125 -1.0q-0.328125 -0.421875 -1.0625 -0.625zm-2.59375 -0.15625q-1.109375 0.03125 -1.6875 0.578125q-0.578125 0.546875 -0.578125 1.328125q0 0.84375 0.609375 1.390625q0.609375 0.546875 1.65625 0.53125l0 -3.828125zm-7.6875 -9.809021l0 -4.9375q0 -1.65625 0.265625 -2.53125q0.34375 -1.1875 1.234375 -2.015625q0.875 -0.84375 2.15625 -1.28125q1.28125 -0.4375 3.15625 -0.4375q1.640625 0 2.84375 0.40625q1.453125 0.5 2.359375 1.4375q0.671875 0.703125 1.0625 1.890625q0.28125 0.890625 0.28125 2.390625l0 5.078125l-13.359375 0zm2.265625 -2.703125l8.84375 0l0 -2.015625q0 -1.125 -0.125 -1.625q-0.171875 -0.65625 -0.5625 -1.078125q-0.390625 -0.4375 -1.28125 -0.703125q-0.90625 -0.28125 -2.453125 -0.28125q-1.546875 0 -2.375 0.28125q-0.828125 0.265625 -1.28125 0.765625q-0.46875 0.484375 -0.640625 1.234375q-0.125 0.5625 -0.125 2.21875l0 1.203125zm8.015625 -16.363586l0.421875 -2.546875q1.40625 0.484375 2.140625 1.546875q0.734375 1.0625 0.734375 2.65625q0 2.515625 -1.65625 3.734375q-1.3125 0.953125 -3.328125 0.953125q-2.40625 0 -3.765625 -1.25q-1.359375 -1.265625 -1.359375 -3.1875q0 -2.15625 1.421875 -3.40625q1.421875 -1.25 4.375 -1.1875l0 6.40625q1.140625 -0.03125 1.78125 -0.609375q0.625 -0.59375 0.625 -1.484375q0 -0.59375 -0.328125 -1.0q-0.328125 -0.421875 -1.0625 -0.625zm-2.59375 -0.15625q-1.109375 0.03125 -1.6875 0.578125q-0.578125 0.546875 -0.578125 1.328125q0 0.84375 0.609375 1.390625q0.609375 0.546875 1.65625 0.53125l0 -3.828125zm-4.0 -4.547577l0 -2.390625l1.421875 0q-0.734375 -0.46875 -1.1875 -1.25q-0.453125 -0.796875 -0.453125 -1.765625q0 -1.6875 1.328125 -2.859375q1.3125 -1.171875 3.671875 -1.171875q2.421875 0 3.765625 1.1875q1.34375 1.1875 1.34375 2.859375q0 0.8125 -0.3125 1.46875q-0.328125 0.640625 -1.09375 1.359375l4.875 0l0 2.5625l-13.359375 0zm4.671875 -2.53125q1.625 0 2.40625 -0.640625q0.78125 -0.65625 0.78125 -1.578125q0 -0.90625 -0.71875 -1.484375q-0.71875 -0.59375 -2.34375 -0.59375q-1.515625 0 -2.25 0.609375q-0.75 0.609375 -0.75 1.515625q0 0.9375 0.734375 1.5625q0.71875 0.609375 2.140625 0.609375zm0.03125 -8.349121q-1.28125 0 -2.46875 -0.625q-1.203125 -0.625 -1.828125 -1.78125q-0.625 -1.15625 -0.625 -2.578125q0 -2.1875 1.421875 -3.59375q1.421875 -1.40625 3.609375 -1.40625q2.1875 0 3.640625 1.421875q1.4375 1.421875 1.4375 3.5625q0 1.328125 -0.59375 2.546875q-0.609375 1.203125 -1.765625 1.828125q-1.171875 0.625 -2.828125 0.625zm0.125 -2.625q1.453125 0 2.21875 -0.671875q0.75 -0.6875 0.75 -1.6875q0 -1.0 -0.75 -1.671875q-0.765625 -0.6875 -2.234375 -0.6875q-1.421875 0 -2.1875 0.6875q-0.765625 0.671875 -0.765625 1.671875q0 1.0 0.765625 1.6875q0.765625 0.671875 2.203125 0.671875zm2.078125 -8.458466l-0.390625 -2.5625q0.75 -0.171875 1.140625 -0.671875q0.390625 -0.5 0.390625 -1.40625q0 -0.984375 -0.375 -1.484375q-0.25 -0.34375 -0.671875 -0.34375q-0.296875 0 -0.484375 0.1875q-0.1875 0.1875 -0.34375 0.859375q-0.6875 3.09375 -1.25 3.921875q-0.78125 1.140625 -2.171875 1.140625q-1.265625 0 -2.109375 -0.984375q-0.859375 -1.0 -0.859375 -3.078125q0 -1.984375 0.65625 -2.953125q0.640625 -0.96875 1.90625 -1.328125l0.4375 2.40625q-0.5625 0.15625 -0.859375 0.59375q-0.296875 0.421875 -0.296875 1.234375q0 1.0 0.28125 1.4375q0.203125 0.296875 0.515625 0.296875q0.265625 0 0.46875 -0.25q0.25 -0.34375 0.71875 -2.390625q0.453125 -2.046875 1.140625 -2.859375q0.671875 -0.796875 1.890625 -0.796875q1.34375 0 2.296875 1.109375q0.953125 1.109375 0.953125 3.28125q0 1.984375 -0.796875 3.140625q-0.8125 1.140625 -2.1875 1.5zm-8.21875 -11.281982l-2.375 0l0 -2.5625l2.375 0l0 2.5625zm10.984375 0l-9.671875 0l0 -2.5625l9.671875 0l0 2.5625zm-9.671875 -9.620789l2.03125 0l0 1.75l3.90625 0q1.1875 0 1.390625 -0.046875q0.1875 -0.046875 0.3125 -0.21875q0.125 -0.1875 0.125 -0.4375q0 -0.359375 -0.25 -1.03125l2.0 -0.21875q0.375 0.890625 0.375 2.015625q0 0.703125 -0.234375 1.265625q-0.234375 0.546875 -0.59375 0.8125q-0.375 0.25 -1.0 0.34375q-0.453125 0.09375 -1.8125 0.09375l-4.21875 0l0 1.171875l-2.03125 0l0 -1.171875l-1.921875 0l-1.5 -2.578125l3.421875 0l0 -1.75z" fill-rule="nonzero"/><path fill="#000000" fill-opacity="0.0" d="m165.50394 262.4882l490.20474 -2.1102295" fill-rule="evenodd"/><path stroke="#00ff00" stroke-width="8.0" stroke-linejoin="round" stroke-linecap="butt" d="m165.50394 262.4882l442.20517 -1.903595" fill-rule="evenodd"/><path fill="#00ff00" stroke="#00ff00" stroke-width="8.0" stroke-linecap="butt" d="m607.766 273.7983l36.24756 -13.370026l-36.36133 -13.057434z" fill-rule="evenodd"/><path fill="#000000" fill-opacity="0.0" d="m260.8294 133.87665l269.4173 0l0 42.015747l-269.4173 0z" fill-rule="evenodd"/><path stroke="#ff0000" stroke-width="1.0" stroke-linejoin="round" stroke-linecap="butt" d="m260.8294 133.87665l269.4173 0l0 42.015747l-269.4173 0z" fill-rule="evenodd"/><path fill="#0000ff" d="m298.16177 155.8904l2.609375 0.828125q-0.59375 2.1875 -2.0 3.25q-1.390625 1.0625 -3.546875 1.0625q-2.65625 0 -4.375 -1.8125q-1.703125 -1.828125 -1.703125 -4.984375q0 -3.328125 1.71875 -5.171875q1.71875 -1.84375 4.515625 -1.84375q2.453125 0 3.984375 1.4375q0.921875 0.859375 1.375 2.46875l-2.671875 0.640625q-0.234375 -1.046875 -0.984375 -1.640625q-0.75 -0.609375 -1.828125 -0.609375q-1.484375 0 -2.421875 1.078125q-0.921875 1.0625 -0.921875 3.4375q0 2.53125 0.90625 3.609375q0.921875 1.078125 2.375 1.078125q1.078125 0 1.84375 -0.671875q0.78125 -0.6875 1.125 -2.15625zm7.363556 4.90625l-2.5625 0l0 -9.671875l2.375 0l0 1.375q0.609375 -0.984375 1.09375 -1.28125q0.484375 -0.3125 1.109375 -0.3125q0.875 0 1.6875 0.484375l-0.796875 2.234375q-0.640625 -0.421875 -1.203125 -0.421875q-0.53125 0 -0.90625 0.296875q-0.375 0.296875 -0.59375 1.078125q-0.203125 0.765625 -0.203125 3.234375l0 2.984375zm4.2134094 -4.96875q0 -1.28125 0.625 -2.46875q0.625 -1.203125 1.78125 -1.828125q1.15625 -0.625 2.578125 -0.625q2.1875 0 3.59375 1.421875q1.40625 1.421875 1.40625 3.609375q0 2.1875 -1.421875 3.640625q-1.421875 1.4375 -3.5625 1.4375q-1.328125 0 -2.546875 -0.59375q-1.203125 -0.609375 -1.828125 -1.765625q-0.625 -1.171875 -0.625 -2.828125zm2.625 0.125q0 1.453125 0.671875 2.21875q0.6875 0.75 1.6875 0.75q1.0 0 1.671875 -0.75q0.6875 -0.765625 0.6875 -2.234375q0 -1.421875 -0.6875 -2.1875q-0.671875 -0.765625 -1.671875 -0.765625q-1.0 0 -1.6875 0.765625q-0.671875 0.765625 -0.671875 2.203125zm8.458466 2.078125l2.5625 -0.390625q0.171875 0.75 0.671875 1.140625q0.5 0.390625 1.40625 0.390625q0.984375 0 1.484375 -0.375q0.34375 -0.25 0.34375 -0.671875q0 -0.296875 -0.1875 -0.484375q-0.1875 -0.1875 -0.859375 -0.34375q-3.09375 -0.6875 -3.921875 -1.25q-1.140625 -0.78125 -1.140625 -2.171875q0 -1.265625 0.984375 -2.109375q1.0 -0.859375 3.078125 -0.859375q1.984375 0 2.953125 0.65625q0.96875 0.640625 1.328125 1.90625l-2.40625 0.4375q-0.15625 -0.5625 -0.59375 -0.859375q-0.421875 -0.296875 -1.234375 -0.296875q-1.0 0 -1.4375 0.28125q-0.296875 0.203125 -0.296875 0.515625q0 0.265625 0.25 0.46875q0.34375 0.25 2.390625 0.71875q2.046875 0.453125 2.859375 1.140625q0.796875 0.671875 0.796875 1.890625q0 1.34375 -1.109375 2.296875q-1.109375 0.953125 -3.28125 0.953125q-1.984375 0 -3.140625 -0.796875q-1.140625 -0.8125 -1.5 -2.1875zm10.375732 0l2.5625 -0.390625q0.171875 0.75 0.671875 1.140625q0.5 0.390625 1.40625 0.390625q0.984375 0 1.484375 -0.375q0.34375 -0.25 0.34375 -0.671875q0 -0.296875 -0.1875 -0.484375q-0.1875 -0.1875 -0.859375 -0.34375q-3.09375 -0.6875 -3.921875 -1.25q-1.140625 -0.78125 -1.140625 -2.171875q0 -1.265625 0.984375 -2.109375q1.0 -0.859375 3.078125 -0.859375q1.984375 0 2.953125 0.65625q0.96875 0.640625 1.328125 1.90625l-2.40625 0.4375q-0.15625 -0.5625 -0.59375 -0.859375q-0.421875 -0.296875 -1.234375 -0.296875q-1.0 0 -1.4375 0.28125q-0.296875 0.203125 -0.296875 0.515625q0 0.265625 0.25 0.46875q0.34375 0.25 2.390625 0.71875q2.046875 0.453125 2.859375 1.140625q0.796875 0.671875 0.796875 1.890625q0 1.34375 -1.109375 2.296875q-1.109375 0.953125 -3.28125 0.953125q-1.984375 0 -3.140625 -0.796875q-1.140625 -0.8125 -1.5 -2.1875zm25.027771 -2.140625l2.609375 0.828125q-0.59375 2.1875 -2.0 3.25q-1.390625 1.0625 -3.546875 1.0625q-2.65625 0 -4.375 -1.8125q-1.703125 -1.828125 -1.703125 -4.984375q0 -3.328125 1.71875 -5.171875q1.71875 -1.84375 4.515625 -1.84375q2.453125 0 3.984375 1.4375q0.921875 0.859375 1.375 2.46875l-2.671875 0.640625q-0.234375 -1.046875 -0.984375 -1.640625q-0.75 -0.609375 -1.828125 -0.609375q-1.484375 0 -2.421875 1.078125q-0.921875 1.0625 -0.921875 3.4375q0 2.53125 0.90625 3.609375q0.921875 1.078125 2.375 1.078125q1.078125 0 1.84375 -0.671875q0.78125 -0.6875 1.125 -2.15625zm11.269806 4.90625l0 -1.453125q-0.53125 0.78125 -1.390625 1.234375q-0.859375 0.4375 -1.8125 0.4375q-0.96875 0 -1.75 -0.421875q-0.765625 -0.4375 -1.125 -1.203125q-0.34375 -0.78125 -0.34375 -2.140625l0 -6.125l2.5625 0l0 4.4375q0 2.046875 0.140625 2.515625q0.140625 0.453125 0.515625 0.71875q0.375 0.265625 0.953125 0.265625q0.65625 0 1.171875 -0.359375q0.515625 -0.359375 0.703125 -0.890625q0.203125 -0.53125 0.203125 -2.609375l0 -4.078125l2.546875 0l0 9.671875l-2.375 0zm9.474121 -9.671875l0 2.03125l-1.75 0l0 3.90625q0 1.1875 0.046875 1.390625q0.046875 0.1875 0.21875 0.3125q0.1875 0.125 0.4375 0.125q0.359375 0 1.03125 -0.25l0.21875 2.0q-0.890625 0.375 -2.015625 0.375q-0.703125 0 -1.265625 -0.234375q-0.546875 -0.234375 -0.8125 -0.59375q-0.25 -0.375 -0.34375 -1.0q-0.09375 -0.453125 -0.09375 -1.8125l0 -4.21875l-1.171875 0l0 -2.03125l1.171875 0l0 -1.921875l2.578125 -1.5l0 3.421875l1.75 0zm6.212677 0l0 2.03125l-1.75 0l0 3.90625q0 1.1875 0.046875 1.390625q0.046875 0.1875 0.21875 0.3125q0.1875 0.125 0.4375 0.125q0.359375 0 1.03125 -0.25l0.21875 2.0q-0.890625 0.375 -2.015625 0.375q-0.703125 0 -1.265625 -0.234375q-0.546875 -0.234375 -0.8125 -0.59375q-0.25 -0.375 -0.34375 -1.0q-0.09375 -0.453125 -0.09375 -1.8125l0 -4.21875l-1.171875 0l0 -2.03125l1.171875 0l0 -1.921875l2.578125 -1.5l0 3.421875l1.75 0zm1.775177 -1.3125l0 -2.375l2.5625 0l0 2.375l-2.5625 0zm0 10.984375l0 -9.671875l2.5625 0l0 9.671875l-2.5625 0zm13.980164 0l-2.5625 0l0 -4.9375q0 -1.5625 -0.171875 -2.015625q-0.15625 -0.46875 -0.53125 -0.71875q-0.359375 -0.265625 -0.875 -0.265625q-0.671875 0 -1.203125 0.375q-0.53125 0.359375 -0.734375 0.96875q-0.1875 0.59375 -0.1875 2.21875l0 4.375l-2.546875 0l0 -9.671875l2.375 0l0 1.421875q1.265625 -1.640625 3.1875 -1.640625q0.84375 0 1.546875 0.3125q0.703125 0.296875 1.0625 0.78125q0.359375 0.46875 0.5 1.078125q0.140625 0.59375 0.140625 1.703125l0 6.015625zm2.364746 0.640625l2.921875 0.359375q0.0625 0.5 0.328125 0.6875q0.375 0.28125 1.15625 0.28125q1.0 0 1.5 -0.296875q0.328125 -0.203125 0.515625 -0.65625q0.109375 -0.3125 0.109375 -1.171875l0 -1.40625q-1.140625 1.5625 -2.890625 1.5625q-1.953125 0 -3.09375 -1.65625q-0.890625 -1.296875 -0.890625 -3.234375q0 -2.4375 1.171875 -3.71875q1.171875 -1.28125 2.90625 -1.28125q1.796875 0 2.96875 1.578125l0 -1.359375l2.390625 0l0 8.671875q0 1.71875 -0.28125 2.5625q-0.28125 0.84375 -0.796875 1.328125q-0.5 0.484375 -1.359375 0.75q-0.84375 0.28125 -2.15625 0.28125q-2.453125 0 -3.484375 -0.84375q-1.03125 -0.84375 -1.03125 -2.125q0 -0.140625 0.015625 -0.3125zm2.28125 -5.671875q0 1.53125 0.59375 2.25q0.59375 0.71875 1.46875 0.71875q0.9375 0 1.578125 -0.734375q0.65625 -0.734375 0.65625 -2.171875q0 -1.515625 -0.625 -2.234375q-0.609375 -0.734375 -1.5625 -0.734375q-0.921875 0 -1.515625 0.71875q-0.59375 0.71875 -0.59375 2.1875zm23.09491 0.125l2.609375 0.828125q-0.59375 2.1875 -2.0 3.25q-1.390625 1.0625 -3.546875 1.0625q-2.65625 0 -4.375 -1.8125q-1.703125 -1.828125 -1.703125 -4.984375q0 -3.328125 1.71875 -5.171875q1.71875 -1.84375 4.515625 -1.84375q2.453125 0 3.984375 1.4375q0.921875 0.859375 1.375 2.46875l-2.671875 0.640625q-0.234375 -1.046875 -0.984375 -1.640625q-0.75 -0.609375 -1.828125 -0.609375q-1.484375 0 -2.421875 1.078125q-0.921875 1.0625 -0.921875 3.4375q0 2.53125 0.90625 3.609375q0.921875 1.078125 2.375 1.078125q1.078125 0 1.84375 -0.671875q0.78125 -0.6875 1.125 -2.15625zm4.316681 -0.0625q0 -1.28125 0.625 -2.46875q0.625 -1.203125 1.78125 -1.828125q1.15625 -0.625 2.578125 -0.625q2.1875 0 3.59375 1.421875q1.40625 1.421875 1.40625 3.609375q0 2.1875 -1.421875 3.640625q-1.421875 1.4375 -3.5625 1.4375q-1.328125 0 -2.546875 -0.59375q-1.203125 -0.609375 -1.828125 -1.765625q-0.625 -1.171875 -0.625 -2.828125zm2.625 0.125q0 1.453125 0.671875 2.21875q0.6875 0.75 1.6875 0.75q1.0 0 1.671875 -0.75q0.6875 -0.765625 0.6875 -2.234375q0 -1.421875 -0.6875 -2.1875q-0.671875 -0.765625 -1.671875 -0.765625q-1.0 0 -1.6875 0.765625q-0.671875 0.765625 -0.671875 2.203125zm18.161621 4.84375l-2.5625 0l0 -4.9375q0 -1.5625 -0.171875 -2.015625q-0.15625 -0.46875 -0.53125 -0.71875q-0.359375 -0.265625 -0.875 -0.265625q-0.671875 0 -1.203125 0.375q-0.53125 0.359375 -0.734375 0.96875q-0.1875 0.59375 -0.1875 2.21875l0 4.375l-2.546875 0l0 -9.671875l2.375 0l0 1.421875q1.265625 -1.640625 3.1875 -1.640625q0.84375 0 1.546875 0.3125q0.703125 0.296875 1.0625 0.78125q0.359375 0.46875 0.5 1.078125q0.140625 0.59375 0.140625 1.703125l0 6.015625zm11.036591 -6.8125l-2.53125 0.453125q-0.125 -0.75 -0.578125 -1.125q-0.453125 -0.390625 -1.171875 -0.390625q-0.953125 0 -1.53125 0.65625q-0.5625 0.65625 -0.5625 2.203125q0 1.734375 0.578125 2.4375q0.578125 0.703125 1.546875 0.703125q0.734375 0 1.203125 -0.40625q0.46875 -0.421875 0.65625 -1.421875l2.515625 0.421875q-0.390625 1.734375 -1.515625 2.625q-1.109375 0.875 -2.96875 0.875q-2.125 0 -3.390625 -1.328125q-1.25 -1.34375 -1.25 -3.71875q0 -2.390625 1.265625 -3.71875q1.265625 -1.34375 3.421875 -1.34375q1.765625 0 2.796875 0.765625q1.046875 0.75 1.515625 2.3125zm7.5319824 3.734375l2.546875 0.421875q-0.484375 1.40625 -1.546875 2.140625q-1.0625 0.734375 -2.65625 0.734375q-2.515625 0 -3.734375 -1.65625q-0.953125 -1.3125 -0.953125 -3.328125q0 -2.40625 1.25 -3.765625q1.265625 -1.359375 3.1875 -1.359375q2.15625 0 3.40625 1.421875q1.25 1.421875 1.1875 4.375l-6.40625 0q0.03125 1.140625 0.609375 1.78125q0.59375 0.625 1.484375 0.625q0.59375 0 1.0 -0.328125q0.421875 -0.328125 0.625 -1.0625zm0.15625 -2.59375q-0.03125 -1.109375 -0.578125 -1.6875q-0.546875 -0.578125 -1.328125 -0.578125q-0.84375 0 -1.390625 0.609375q-0.546875 0.609375 -0.53125 1.65625l3.828125 0zm7.078827 5.671875l-2.5625 0l0 -9.671875l2.375 0l0 1.375q0.609375 -0.984375 1.09375 -1.28125q0.484375 -0.3125 1.109375 -0.3125q0.875 0 1.6875 0.484375l-0.796875 2.234375q-0.640625 -0.421875 -1.203125 -0.421875q-0.53125 0 -0.90625 0.296875q-0.375 0.296875 -0.59375 1.078125q-0.203125 0.765625 -0.203125 3.234375l0 2.984375zm13.604034 0l-2.5625 0l0 -4.9375q0 -1.5625 -0.171875 -2.015625q-0.15625 -0.46875 -0.53125 -0.71875q-0.359375 -0.265625 -0.875 -0.265625q-0.671875 0 -1.203125 0.375q-0.53125 0.359375 -0.734375 0.96875q-0.1875 0.59375 -0.1875 2.21875l0 4.375l-2.546875 0l0 -9.671875l2.375 0l0 1.421875q1.265625 -1.640625 3.1875 -1.640625q0.84375 0 1.546875 0.3125q0.703125 0.296875 1.0625 0.78125q0.359375 0.46875 0.5 1.078125q0.140625 0.59375 0.140625 1.703125l0 6.015625zm1.6928406 -2.765625l2.5625 -0.390625q0.171875 0.75 0.671875 1.140625q0.5 0.390625 1.40625 0.390625q0.984375 0 1.484375 -0.375q0.34375 -0.25 0.34375 -0.671875q0 -0.296875 -0.1875 -0.484375q-0.1875 -0.1875 -0.859375 -0.34375q-3.09375 -0.6875 -3.921875 -1.25q-1.140625 -0.78125 -1.140625 -2.171875q0 -1.265625 0.984375 -2.109375q1.0 -0.859375 3.078125 -0.859375q1.984375 0 2.953125 0.65625q0.96875 0.640625 1.328125 1.90625l-2.40625 0.4375q-0.15625 -0.5625 -0.59375 -0.859375q-0.421875 -0.296875 -1.234375 -0.296875q-1.0 0 -1.4375 0.28125q-0.296875 0.203125 -0.296875 0.515625q0 0.265625 0.25 0.46875q0.34375 0.25 2.390625 0.71875q2.046875 0.453125 2.859375 1.140625q0.796875 0.671875 0.796875 1.890625q0 1.34375 -1.109375 2.296875q-1.109375 0.953125 -3.28125 0.953125q-1.984375 0 -3.140625 -0.796875q-1.140625 -0.8125 -1.5 -2.1875z" fill-rule="nonzero"/><path fill="#000000" fill-opacity="0.0" d="m537.73755 430.67743l0 -169.22836l42.015747 0l0 169.22836z" fill-rule="evenodd"/><path stroke="#ffffff" stroke-width="1.0" stroke-linejoin="round" stroke-linecap="butt" d="m537.73755 430.67743l0 -169.22836l42.015747 0l0 169.22836z" fill-rule="evenodd"/><path fill="#000000" d="m564.65753 420.39618l-13.359375 0l0 -2.6875l13.359375 0l0 2.6875zm-2.765625 -4.339569l-0.390625 -2.5625q0.75 -0.171875 1.140625 -0.671875q0.390625 -0.5 0.390625 -1.40625q0 -0.984375 -0.375 -1.484375q-0.25 -0.34375 -0.671875 -0.34375q-0.296875 0 -0.484375 0.1875q-0.1875 0.1875 -0.34375 0.859375q-0.6875 3.09375 -1.25 3.921875q-0.78125 1.140625 -2.171875 1.140625q-1.265625 0 -2.109375 -0.984375q-0.859375 -1.0 -0.859375 -3.078125q0 -1.984375 0.65625 -2.953125q0.640625 -0.96875 1.90625 -1.328125l0.4375 2.40625q-0.5625 0.15625 -0.859375 0.59375q-0.296875 0.421875 -0.296875 1.234375q0 1.0 0.28125 1.4375q0.203125 0.296875 0.515625 0.296875q0.265625 0 0.46875 -0.25q0.25 -0.34375 0.71875 -2.390625q0.453125 -2.046875 1.140625 -2.859375q0.671875 -0.796875 1.890625 -0.796875q1.34375 0 2.296875 1.109375q0.953125 1.109375 0.953125 3.28125q0 1.984375 -0.796875 3.140625q-0.8125 1.140625 -2.1875 1.5zm0 -10.375702l-0.390625 -2.5625q0.75 -0.171875 1.140625 -0.671875q0.390625 -0.5 0.390625 -1.40625q0 -0.984375 -0.375 -1.484375q-0.25 -0.34375 -0.671875 -0.34375q-0.296875 0 -0.484375 0.1875q-0.1875 0.1875 -0.34375 0.859375q-0.6875 3.09375 -1.25 3.921875q-0.78125 1.140625 -2.171875 1.140625q-1.265625 0 -2.109375 -0.984375q-0.859375 -1.0 -0.859375 -3.078125q0 -1.984375 0.65625 -2.953125q0.640625 -0.96875 1.90625 -1.328125l0.4375 2.40625q-0.5625 0.15625 -0.859375 0.59375q-0.296875 0.421875 -0.296875 1.234375q0 1.0 0.28125 1.4375q0.203125 0.296875 0.515625 0.296875q0.265625 0 0.46875 -0.25q0.25 -0.34375 0.71875 -2.390625q0.453125 -2.046875 1.140625 -2.859375q0.671875 -0.796875 1.890625 -0.796875q1.34375 0 2.296875 1.109375q0.953125 1.109375 0.953125 3.28125q0 1.984375 -0.796875 3.140625q-0.8125 1.140625 -2.1875 1.5zm2.765625 -17.641357l-1.453125 0q0.78125 0.53125 1.234375 1.390625q0.4375 0.859375 0.4375 1.8125q0 0.96875 -0.421875 1.75q-0.4375 0.765625 -1.203125 1.125q-0.78125 0.34375 -2.140625 0.34375l-6.125 0l0 -2.5625l4.4375 0q2.046875 0 2.515625 -0.140625q0.453125 -0.140625 0.71875 -0.515625q0.265625 -0.375 0.265625 -0.953125q0 -0.65625 -0.359375 -1.171875q-0.359375 -0.515625 -0.890625 -0.703125q-0.53125 -0.203125 -2.609375 -0.203125l-4.078125 0l0 -2.546875l9.671875 0l0 2.375zm-3.078125 -10.630341l0.421875 -2.546875q1.40625 0.484375 2.140625 1.546875q0.734375 1.0625 0.734375 2.65625q0 2.515625 -1.65625 3.734375q-1.3125 0.953125 -3.328125 0.953125q-2.40625 0 -3.765625 -1.25q-1.359375 -1.265625 -1.359375 -3.1875q0 -2.15625 1.421875 -3.40625q1.421875 -1.25 4.375 -1.1875l0 6.40625q1.140625 -0.03125 1.78125 -0.609375q0.625 -0.59375 0.625 -1.484375q0 -0.59375 -0.328125 -1.0q-0.328125 -0.421875 -1.0625 -0.625zm-2.59375 -0.15625q-1.109375 0.03125 -1.6875 0.578125q-0.578125 0.546875 -0.578125 1.328125q0 0.84375 0.609375 1.390625q0.609375 0.546875 1.65625 0.53125l0 -3.828125zm5.671875 -9.824646l-13.359375 0l0 -5.6875q0 -2.140625 0.359375 -3.109375q0.359375 -0.96875 1.28125 -1.546875q0.921875 -0.578125 2.109375 -0.578125q1.5 0 2.484375 0.890625q0.96875 0.875 1.234375 2.625q0.5 -0.875 1.125 -1.4375q0.609375 -0.578125 2.15625 -1.53125l2.609375 -1.640625l0 3.234375l-2.90625 1.9375q-1.5625 1.046875 -1.96875 1.4375q-0.40625 0.375 -0.546875 0.8125q-0.15625 0.421875 -0.15625 1.34375l0 0.546875l5.578125 0l0 2.703125zm-7.703125 -2.703125l0 -2.0q0 -1.9375 -0.15625 -2.421875q-0.171875 -0.484375 -0.578125 -0.75q-0.40625 -0.28125 -1.0 -0.28125q-0.671875 0 -1.078125 0.359375q-0.421875 0.359375 -0.53125 1.015625q-0.046875 0.328125 -0.046875 1.96875l0 2.109375l3.390625 0zm4.625 -16.347961l0.421875 -2.546875q1.40625 0.484375 2.140625 1.546875q0.734375 1.0625 0.734375 2.65625q0 2.515625 -1.65625 3.734375q-1.3125 0.953125 -3.328125 0.953125q-2.40625 0 -3.765625 -1.25q-1.359375 -1.265625 -1.359375 -3.1875q0 -2.15625 1.421875 -3.40625q1.421875 -1.25 4.375 -1.1875l0 6.40625q1.140625 -0.03125 1.78125 -0.609375q0.625 -0.59375 0.625 -1.484375q0 -0.59375 -0.328125 -1.0q-0.328125 -0.421875 -1.0625 -0.625zm-2.59375 -0.15625q-1.109375 0.03125 -1.6875 0.578125q-0.578125 0.546875 -0.578125 1.328125q0 0.84375 0.609375 1.390625q0.609375 0.546875 1.65625 0.53125l0 -3.828125zm-4.0 -3.500702l0 -1.421875l-0.734375 0q-1.21875 0 -1.8125 -0.25q-0.609375 -0.265625 -0.984375 -0.953125q-0.375 -0.703125 -0.375 -1.78125q0 -1.09375 0.328125 -2.140625l1.78125 0.359375q-0.140625 0.609375 -0.140625 1.171875q0 0.546875 0.265625 0.796875q0.25 0.234375 0.984375 0.234375l0.6875 0l0 -1.90625l2.015625 0l0 1.90625l7.65625 0l0 2.5625l-7.65625 0l0 1.421875l-2.015625 0zm9.671875 -13.697052l-1.453125 0q0.78125 0.53125 1.234375 1.390625q0.4375 0.859375 0.4375 1.8125q0 0.96875 -0.421875 1.75q-0.4375 0.765625 -1.203125 1.125q-0.78125 0.34375 -2.140625 0.34375l-6.125 0l0 -2.5625l4.4375 0q2.046875 0 2.515625 -0.140625q0.453125 -0.140625 0.71875 -0.515625q0.265625 -0.375 0.265625 -0.953125q0 -0.65625 -0.359375 -1.171875q-0.359375 -0.515625 -0.890625 -0.703125q-0.53125 -0.203125 -2.609375 -0.203125l-4.078125 0l0 -2.546875l9.671875 0l0 2.375zm0 -13.833496l0 2.5625l-4.9375 0q-1.5625 0 -2.015625 0.171875q-0.46875 0.15625 -0.71875 0.53125q-0.265625 0.359375 -0.265625 0.875q0 0.671875 0.375 1.203125q0.359375 0.53125 0.96875 0.734375q0.59375 0.1875 2.21875 0.1875l4.375 0l0 2.546875l-9.671875 0l0 -2.375l1.421875 0q-1.640625 -1.265625 -1.640625 -3.1875q0 -0.84375 0.3125 -1.546875q0.296875 -0.703125 0.78125 -1.0625q0.46875 -0.359375 1.078125 -0.5q0.59375 -0.140625 1.703125 -0.140625l6.015625 0zm0 -11.474091l0 2.390625l-1.421875 0q0.828125 0.59375 1.234375 1.40625q0.40625 0.796875 0.40625 1.609375q0 1.671875 -1.34375 2.859375q-1.34375 1.1875 -3.75 1.1875q-2.453125 0 -3.734375 -1.15625q-1.28125 -1.15625 -1.28125 -2.921875q0 -1.625 1.34375 -2.8125l-4.8125 0l0 -2.5625l13.359375 0zm-5.046875 6.84375q1.546875 0 2.234375 -0.4375q1.015625 -0.609375 1.015625 -1.71875q0 -0.890625 -0.75 -1.5q-0.765625 -0.625 -2.25 -0.625q-1.671875 0 -2.40625 0.609375q-0.734375 0.59375 -0.734375 1.53125q0 0.90625 0.734375 1.53125q0.71875 0.609375 2.15625 0.609375z" fill-rule="nonzero"/><path fill="#000000" fill-opacity="0.0" d="m159.1811 441.69815l496.50397 -1.0393677" fill-rule="evenodd"/><path stroke="#00ff00" stroke-width="8.0" stroke-linejoin="round" stroke-linecap="butt" d="m159.1811 441.69815l448.5041 -0.9388733" fill-rule="evenodd"/><path fill="#00ff00" stroke="#00ff00" stroke-width="8.0" stroke-linecap="butt" d="m607.7128 453.9731l36.27704 -13.289825l-36.332397 -13.137848z" fill-rule="evenodd"/></g></svg>